# xmcd CD database file
#
# Track frame offsets:
#	150
#	21006
#	45201
#	63231
#	78659
#	110226
#	137226
#	160886
#
# Disc length: 2439 seconds
#
# Revision: 0
# Processed by: cddbd v1.5.2PL0 Copyright (c) Steve Scherf et al.
# Submitted via: CDex 1.50
#
DISCID=64098508
DTITLE=Richard Johnson - Foot Hill Stomp
DYEAR=1900
DGENRE=Blues
TTITLE0=Miss Maebelle
TTITLE1=Do The Romp
TTITLE2=Coal Black Mattie
TTITLE3=That´s No Way To Get Along
TTITLE4=Work Me Baby
TTITLE5=Catfish Blues/I Feel Good Little Girl
TTITLE6=Come On In
TTITLE7=Chicken And Gravy
EXTD=
EXTT0=
EXTT1=
EXTT2=
EXTT3=
EXTT4=
EXTT5=
EXTT6=
EXTT7=
PLAYORDER=
